<mxfile host="app.diagrams.net" modified="2024-07-22T20:31:37.071Z" agent="Mozilla/5.0 (Windows NT 10.0; Win64; x64) AppleWebKit/537.36 (KHTML, like Gecko) Chrome/126.0.0.0 Safari/537.36" version="24.7.3" etag="UAQovtVmHkS1bYZ5BdOi" type="device">
  <diagram id="8tZmdEUZiIzHv_DwVKJz" name="Page-1">
    <mxGraphModel dx="691" dy="419" grid="1" gridSize="10" guides="1" tooltips="1" connect="1" arrows="1" fold="1" page="1" pageScale="1" pageWidth="827" pageHeight="1169" math="0" shadow="0">
      <root>
        <mxCell id="0" />
        <mxCell id="1" parent="0" />
        <mxCell id="H2X3rNa2zZW_aXIO_rv6-1" value="" style="edgeStyle=orthogonalEdgeStyle;rounded=0;orthogonalLoop=1;jettySize=auto;html=1;" edge="1" parent="1" source="H2X3rNa2zZW_aXIO_rv6-2" target="H2X3rNa2zZW_aXIO_rv6-7">
          <mxGeometry relative="1" as="geometry" />
        </mxCell>
        <mxCell id="H2X3rNa2zZW_aXIO_rv6-2" value="Create a new Subtree of subtreeLevel levels" style="ellipse;whiteSpace=wrap;html=1;" vertex="1" parent="1">
          <mxGeometry x="57.5" y="40" width="130" height="80" as="geometry" />
        </mxCell>
        <mxCell id="H2X3rNa2zZW_aXIO_rv6-30" style="edgeStyle=orthogonalEdgeStyle;rounded=0;orthogonalLoop=1;jettySize=auto;html=1;exitX=1;exitY=0.5;exitDx=0;exitDy=0;entryX=0;entryY=0.5;entryDx=0;entryDy=0;" edge="1" parent="1" source="H2X3rNa2zZW_aXIO_rv6-7" target="H2X3rNa2zZW_aXIO_rv6-29">
          <mxGeometry relative="1" as="geometry">
            <mxPoint x="225" y="217.5" as="targetPoint" />
          </mxGeometry>
        </mxCell>
        <mxCell id="H2X3rNa2zZW_aXIO_rv6-32" style="edgeStyle=orthogonalEdgeStyle;rounded=0;orthogonalLoop=1;jettySize=auto;html=1;exitX=0.5;exitY=1;exitDx=0;exitDy=0;entryX=0.5;entryY=0;entryDx=0;entryDy=0;" edge="1" parent="1" source="H2X3rNa2zZW_aXIO_rv6-7" target="H2X3rNa2zZW_aXIO_rv6-31">
          <mxGeometry relative="1" as="geometry" />
        </mxCell>
        <mxCell id="H2X3rNa2zZW_aXIO_rv6-7" value="Is there buildings in the tile?" style="rhombus;whiteSpace=wrap;html=1;spacing=15;" vertex="1" parent="1">
          <mxGeometry x="67.5" y="178" width="110" height="80" as="geometry" />
        </mxCell>
        <mxCell id="H2X3rNa2zZW_aXIO_rv6-16" style="edgeStyle=orthogonalEdgeStyle;rounded=0;orthogonalLoop=1;jettySize=auto;html=1;exitX=0.5;exitY=0;exitDx=0;exitDy=0;entryX=0.5;entryY=0;entryDx=0;entryDy=0;" edge="1" parent="1" source="H2X3rNa2zZW_aXIO_rv6-17">
          <mxGeometry relative="1" as="geometry">
            <mxPoint x="965" y="720" as="targetPoint" />
          </mxGeometry>
        </mxCell>
        <mxCell id="H2X3rNa2zZW_aXIO_rv6-29" value="Return a new Subtree with its Availabilities lengths corresponding to the amount of levels in the Subtree" style="ellipse;whiteSpace=wrap;html=1;spacing=15;" vertex="1" parent="1">
          <mxGeometry x="218.75" y="170" width="205" height="95" as="geometry" />
        </mxCell>
        <mxCell id="H2X3rNa2zZW_aXIO_rv6-36" style="edgeStyle=orthogonalEdgeStyle;rounded=0;orthogonalLoop=1;jettySize=auto;html=1;exitX=1;exitY=0.5;exitDx=0;exitDy=0;entryX=0;entryY=0.5;entryDx=0;entryDy=0;" edge="1" parent="1" target="H2X3rNa2zZW_aXIO_rv6-33">
          <mxGeometry relative="1" as="geometry">
            <mxPoint x="188.75" y="352.5" as="sourcePoint" />
          </mxGeometry>
        </mxCell>
        <mxCell id="H2X3rNa2zZW_aXIO_rv6-42" style="edgeStyle=orthogonalEdgeStyle;rounded=0;orthogonalLoop=1;jettySize=auto;html=1;exitX=0.5;exitY=1;exitDx=0;exitDy=0;entryX=0.5;entryY=0;entryDx=0;entryDy=0;" edge="1" parent="1" source="H2X3rNa2zZW_aXIO_rv6-31" target="H2X3rNa2zZW_aXIO_rv6-40">
          <mxGeometry relative="1" as="geometry" />
        </mxCell>
        <mxCell id="H2X3rNa2zZW_aXIO_rv6-31" value="Is the amount of level in the requested Subtree 1?" style="rhombus;whiteSpace=wrap;html=1;spacing=25;" vertex="1" parent="1">
          <mxGeometry x="30" y="297.5" width="185" height="110" as="geometry" />
        </mxCell>
        <mxCell id="H2X3rNa2zZW_aXIO_rv6-37" style="edgeStyle=orthogonalEdgeStyle;rounded=0;orthogonalLoop=1;jettySize=auto;html=1;exitX=1;exitY=0.5;exitDx=0;exitDy=0;entryX=0;entryY=0.5;entryDx=0;entryDy=0;" edge="1" parent="1" source="H2X3rNa2zZW_aXIO_rv6-33" target="H2X3rNa2zZW_aXIO_rv6-34">
          <mxGeometry relative="1" as="geometry" />
        </mxCell>
        <mxCell id="H2X3rNa2zZW_aXIO_rv6-39" style="edgeStyle=orthogonalEdgeStyle;rounded=0;orthogonalLoop=1;jettySize=auto;html=1;exitX=0.5;exitY=0;exitDx=0;exitDy=0;entryX=0.5;entryY=0;entryDx=0;entryDy=0;dashed=1;" edge="1" parent="1" source="H2X3rNa2zZW_aXIO_rv6-33" target="H2X3rNa2zZW_aXIO_rv6-7">
          <mxGeometry relative="1" as="geometry">
            <Array as="points">
              <mxPoint x="347.5" y="290" />
              <mxPoint x="482.5" y="290" />
              <mxPoint x="482.5" y="150" />
              <mxPoint x="122.5" y="150" />
            </Array>
          </mxGeometry>
        </mxCell>
        <mxCell id="H2X3rNa2zZW_aXIO_rv6-33" value="Create 4 Subtrees with one level less and with the 4 children Morton Indexes" style="whiteSpace=wrap;html=1;spacing=20;" vertex="1" parent="1">
          <mxGeometry x="238.75" y="320" width="165" height="65" as="geometry" />
        </mxCell>
        <mxCell id="H2X3rNa2zZW_aXIO_rv6-38" style="edgeStyle=orthogonalEdgeStyle;rounded=0;orthogonalLoop=1;jettySize=auto;html=1;exitX=1;exitY=0.5;exitDx=0;exitDy=0;entryX=0;entryY=0.5;entryDx=0;entryDy=0;" edge="1" parent="1" source="H2X3rNa2zZW_aXIO_rv6-34" target="H2X3rNa2zZW_aXIO_rv6-35">
          <mxGeometry relative="1" as="geometry" />
        </mxCell>
        <mxCell id="H2X3rNa2zZW_aXIO_rv6-34" value="Concatenate the 4 Subtress into one with one more level" style="whiteSpace=wrap;html=1;spacing=20;" vertex="1" parent="1">
          <mxGeometry x="446.25" y="322.5" width="120" height="60" as="geometry" />
        </mxCell>
        <mxCell id="H2X3rNa2zZW_aXIO_rv6-35" value="Return the concatenation of the 4 Subtress into one with one more level" style="ellipse;whiteSpace=wrap;html=1;" vertex="1" parent="1">
          <mxGeometry x="613.25" y="311.25" width="130" height="82.5" as="geometry" />
        </mxCell>
        <mxCell id="H2X3rNa2zZW_aXIO_rv6-48" style="edgeStyle=orthogonalEdgeStyle;rounded=0;orthogonalLoop=1;jettySize=auto;html=1;exitX=0.5;exitY=1;exitDx=0;exitDy=0;entryX=0.5;entryY=0;entryDx=0;entryDy=0;" edge="1" parent="1" source="H2X3rNa2zZW_aXIO_rv6-40" target="H2X3rNa2zZW_aXIO_rv6-47">
          <mxGeometry relative="1" as="geometry" />
        </mxCell>
        <mxCell id="H2X3rNa2zZW_aXIO_rv6-40" value="Create 4 empty Subtrees with the 4 children Morton Indexes" style="whiteSpace=wrap;html=1;spacing=2;" vertex="1" parent="1">
          <mxGeometry x="62.5" y="440" width="120" height="60" as="geometry" />
        </mxCell>
        <mxCell id="H2X3rNa2zZW_aXIO_rv6-46" style="edgeStyle=orthogonalEdgeStyle;rounded=0;orthogonalLoop=1;jettySize=auto;html=1;exitX=1;exitY=0.5;exitDx=0;exitDy=0;entryX=0;entryY=0.5;entryDx=0;entryDy=0;" edge="1" parent="1" source="H2X3rNa2zZW_aXIO_rv6-41" target="H2X3rNa2zZW_aXIO_rv6-45">
          <mxGeometry relative="1" as="geometry" />
        </mxCell>
        <mxCell id="H2X3rNa2zZW_aXIO_rv6-41" value="Do we compute every Subtrees?" style="rhombus;whiteSpace=wrap;html=1;spacing=20;" vertex="1" parent="1">
          <mxGeometry x="56.25" y="645" width="132.5" height="90" as="geometry" />
        </mxCell>
        <mxCell id="H2X3rNa2zZW_aXIO_rv6-52" style="edgeStyle=orthogonalEdgeStyle;rounded=0;orthogonalLoop=1;jettySize=auto;html=1;exitX=1;exitY=0.5;exitDx=0;exitDy=0;entryX=0;entryY=0.5;entryDx=0;entryDy=0;" edge="1" parent="1" source="H2X3rNa2zZW_aXIO_rv6-45" target="H2X3rNa2zZW_aXIO_rv6-50">
          <mxGeometry relative="1" as="geometry" />
        </mxCell>
        <mxCell id="H2X3rNa2zZW_aXIO_rv6-53" style="edgeStyle=orthogonalEdgeStyle;rounded=0;orthogonalLoop=1;jettySize=auto;html=1;exitX=0.5;exitY=0;exitDx=0;exitDy=0;entryX=0;entryY=0.5;entryDx=0;entryDy=0;" edge="1" parent="1" source="H2X3rNa2zZW_aXIO_rv6-45" target="H2X3rNa2zZW_aXIO_rv6-51">
          <mxGeometry relative="1" as="geometry" />
        </mxCell>
        <mxCell id="H2X3rNa2zZW_aXIO_rv6-45" value="Does the depth level correspond to the root level of a max rank Subtree" style="rhombus;whiteSpace=wrap;html=1;shadow=0;fontFamily=Helvetica;fontSize=12;align=center;strokeWidth=1;spacing=20;spacingTop=0;spacingRight=0;" vertex="1" parent="1">
          <mxGeometry x="225" y="635" width="187.5" height="110" as="geometry" />
        </mxCell>
        <mxCell id="H2X3rNa2zZW_aXIO_rv6-49" style="edgeStyle=orthogonalEdgeStyle;rounded=0;orthogonalLoop=1;jettySize=auto;html=1;exitX=0.5;exitY=1;exitDx=0;exitDy=0;entryX=0.5;entryY=0;entryDx=0;entryDy=0;" edge="1" parent="1" source="H2X3rNa2zZW_aXIO_rv6-47" target="H2X3rNa2zZW_aXIO_rv6-41">
          <mxGeometry relative="1" as="geometry" />
        </mxCell>
        <mxCell id="H2X3rNa2zZW_aXIO_rv6-57" value="Next Subtree" style="edgeLabel;html=1;align=center;verticalAlign=middle;resizable=0;points=[];" vertex="1" connectable="0" parent="H2X3rNa2zZW_aXIO_rv6-49">
          <mxGeometry x="-0.2741" y="-1" relative="1" as="geometry">
            <mxPoint x="41" y="-6" as="offset" />
          </mxGeometry>
        </mxCell>
        <mxCell id="H2X3rNa2zZW_aXIO_rv6-59" style="edgeStyle=orthogonalEdgeStyle;rounded=0;orthogonalLoop=1;jettySize=auto;html=1;exitX=0;exitY=0.5;exitDx=0;exitDy=0;entryX=0;entryY=0.5;entryDx=0;entryDy=0;" edge="1" parent="1" source="H2X3rNa2zZW_aXIO_rv6-47" target="H2X3rNa2zZW_aXIO_rv6-58">
          <mxGeometry relative="1" as="geometry">
            <Array as="points">
              <mxPoint x="32.5" y="568" />
              <mxPoint x="32.5" y="810" />
            </Array>
          </mxGeometry>
        </mxCell>
        <mxCell id="H2X3rNa2zZW_aXIO_rv6-60" value="Then" style="edgeLabel;html=1;align=center;verticalAlign=middle;resizable=0;points=[];" vertex="1" connectable="0" parent="H2X3rNa2zZW_aXIO_rv6-59">
          <mxGeometry x="-0.8355" y="1" relative="1" as="geometry">
            <mxPoint x="11" y="-13" as="offset" />
          </mxGeometry>
        </mxCell>
        <mxCell id="H2X3rNa2zZW_aXIO_rv6-47" value="For every Subtrees" style="rhombus;whiteSpace=wrap;html=1;spacing=20;" vertex="1" parent="1">
          <mxGeometry x="70" y="535" width="105" height="65" as="geometry" />
        </mxCell>
        <mxCell id="H2X3rNa2zZW_aXIO_rv6-64" style="edgeStyle=orthogonalEdgeStyle;rounded=0;orthogonalLoop=1;jettySize=auto;html=1;exitX=1;exitY=0.5;exitDx=0;exitDy=0;entryX=0;entryY=0.5;entryDx=0;entryDy=0;" edge="1" parent="1" source="H2X3rNa2zZW_aXIO_rv6-50" target="H2X3rNa2zZW_aXIO_rv6-62">
          <mxGeometry relative="1" as="geometry" />
        </mxCell>
        <mxCell id="H2X3rNa2zZW_aXIO_rv6-50" value="Create new max rank Subtree" style="whiteSpace=wrap;html=1;spacing=20;" vertex="1" parent="1">
          <mxGeometry x="456.25" y="660" width="120" height="60" as="geometry" />
        </mxCell>
        <mxCell id="H2X3rNa2zZW_aXIO_rv6-54" style="edgeStyle=orthogonalEdgeStyle;rounded=0;orthogonalLoop=1;jettySize=auto;html=1;exitX=0.5;exitY=0;exitDx=0;exitDy=0;entryX=0.5;entryY=0;entryDx=0;entryDy=0;dashed=1;" edge="1" parent="1" source="H2X3rNa2zZW_aXIO_rv6-51" target="H2X3rNa2zZW_aXIO_rv6-7">
          <mxGeometry relative="1" as="geometry">
            <Array as="points">
              <mxPoint x="516" y="440" />
              <mxPoint x="753" y="440" />
              <mxPoint x="753" y="150" />
              <mxPoint x="123" y="150" />
            </Array>
          </mxGeometry>
        </mxCell>
        <mxCell id="H2X3rNa2zZW_aXIO_rv6-63" style="edgeStyle=orthogonalEdgeStyle;rounded=0;orthogonalLoop=1;jettySize=auto;html=1;exitX=1;exitY=0.5;exitDx=0;exitDy=0;entryX=0;entryY=0.5;entryDx=0;entryDy=0;" edge="1" parent="1" source="H2X3rNa2zZW_aXIO_rv6-51" target="H2X3rNa2zZW_aXIO_rv6-62">
          <mxGeometry relative="1" as="geometry" />
        </mxCell>
        <mxCell id="H2X3rNa2zZW_aXIO_rv6-51" value="Create new Subtree of subtreeLevels levels" style="whiteSpace=wrap;html=1;spacing=20;" vertex="1" parent="1">
          <mxGeometry x="456.25" y="570" width="120" height="60" as="geometry" />
        </mxCell>
        <mxCell id="H2X3rNa2zZW_aXIO_rv6-68" style="edgeStyle=orthogonalEdgeStyle;rounded=0;orthogonalLoop=1;jettySize=auto;html=1;exitX=1;exitY=0.5;exitDx=0;exitDy=0;entryX=0;entryY=0.5;entryDx=0;entryDy=0;" edge="1" parent="1" source="H2X3rNa2zZW_aXIO_rv6-58" target="H2X3rNa2zZW_aXIO_rv6-67">
          <mxGeometry relative="1" as="geometry" />
        </mxCell>
        <mxCell id="H2X3rNa2zZW_aXIO_rv6-58" value="Concatenate the 4 Subtress into one with one more level" style="whiteSpace=wrap;html=1;spacing=20;" vertex="1" parent="1">
          <mxGeometry x="62.5" y="780" width="120" height="60" as="geometry" />
        </mxCell>
        <mxCell id="H2X3rNa2zZW_aXIO_rv6-72" style="edgeStyle=orthogonalEdgeStyle;rounded=0;orthogonalLoop=1;jettySize=auto;html=1;exitX=0.5;exitY=1;exitDx=0;exitDy=0;entryX=0.5;entryY=0;entryDx=0;entryDy=0;" edge="1" parent="1" source="H2X3rNa2zZW_aXIO_rv6-61" target="H2X3rNa2zZW_aXIO_rv6-71">
          <mxGeometry relative="1" as="geometry" />
        </mxCell>
        <mxCell id="H2X3rNa2zZW_aXIO_rv6-61" value="Simplify the Subtree" style="whiteSpace=wrap;html=1;spacing=20;" vertex="1" parent="1">
          <mxGeometry x="542.5" y="780" width="120" height="60" as="geometry" />
        </mxCell>
        <mxCell id="H2X3rNa2zZW_aXIO_rv6-65" style="edgeStyle=orthogonalEdgeStyle;rounded=0;orthogonalLoop=1;jettySize=auto;html=1;exitX=0.5;exitY=0;exitDx=0;exitDy=0;entryX=0.5;entryY=0;entryDx=0;entryDy=0;" edge="1" parent="1" source="H2X3rNa2zZW_aXIO_rv6-62" target="H2X3rNa2zZW_aXIO_rv6-47">
          <mxGeometry relative="1" as="geometry" />
        </mxCell>
        <mxCell id="H2X3rNa2zZW_aXIO_rv6-62" value="Simplify the Subtree" style="whiteSpace=wrap;html=1;spacing=20;" vertex="1" parent="1">
          <mxGeometry x="618.25" y="610" width="120" height="60" as="geometry" />
        </mxCell>
        <mxCell id="H2X3rNa2zZW_aXIO_rv6-70" style="edgeStyle=orthogonalEdgeStyle;rounded=0;orthogonalLoop=1;jettySize=auto;html=1;exitX=1;exitY=0.5;exitDx=0;exitDy=0;entryX=0;entryY=0.5;entryDx=0;entryDy=0;" edge="1" parent="1" source="H2X3rNa2zZW_aXIO_rv6-66" target="H2X3rNa2zZW_aXIO_rv6-61">
          <mxGeometry relative="1" as="geometry" />
        </mxCell>
        <mxCell id="H2X3rNa2zZW_aXIO_rv6-66" value="Update the database with the JSON binary" style="whiteSpace=wrap;html=1;spacing=20;" vertex="1" parent="1">
          <mxGeometry x="382.5" y="780" width="120" height="60" as="geometry" />
        </mxCell>
        <mxCell id="H2X3rNa2zZW_aXIO_rv6-69" style="edgeStyle=orthogonalEdgeStyle;rounded=0;orthogonalLoop=1;jettySize=auto;html=1;exitX=1;exitY=0.5;exitDx=0;exitDy=0;entryX=0;entryY=0.5;entryDx=0;entryDy=0;" edge="1" parent="1" source="H2X3rNa2zZW_aXIO_rv6-67" target="H2X3rNa2zZW_aXIO_rv6-66">
          <mxGeometry relative="1" as="geometry" />
        </mxCell>
        <mxCell id="H2X3rNa2zZW_aXIO_rv6-67" value="Create a JSON binary from the Subtree" style="whiteSpace=wrap;html=1;spacing=20;" vertex="1" parent="1">
          <mxGeometry x="222.5" y="780" width="120" height="60" as="geometry" />
        </mxCell>
        <mxCell id="H2X3rNa2zZW_aXIO_rv6-71" value="Return the Subtree" style="ellipse;whiteSpace=wrap;html=1;" vertex="1" parent="1">
          <mxGeometry x="537.5" y="870" width="130" height="80" as="geometry" />
        </mxCell>
      </root>
    </mxGraphModel>
  </diagram>
</mxfile>
